<svg xmlns="http://www.w3.org/2000/svg" width="48" height="62" viewBox="0 0 48 62" fill="none">
  <defs>
    <linearGradient id="border" x1="0" y1="0" x2="48" y2="62" gradientUnits="userSpaceOnUse">
      <stop offset="0%" stop-color="#2563eb"/>
      <stop offset="50%" stop-color="#7c3aed"/>
      <stop offset="100%" stop-color="#f97316"/>
    </linearGradient>
    <linearGradient id="paddle" x1="22" y1="8" x2="26" y2="38" gradientUnits="userSpaceOnUse">
      <stop offset="0%" stop-color="#1e3a8a"/>
      <stop offset="100%" stop-color="#2563eb"/>
    </linearGradient>
    <linearGradient id="ball" x1="16" y1="18" x2="32" y2="34" gradientUnits="userSpaceOnUse">
      <stop offset="0%" stop-color="#3b82f6"/>
      <stop offset="100%" stop-color="#1e3a8a"/>
    </linearGradient>
  </defs>
  <!-- Pin shape outline (gradient border) -->
  <path d="M24 2C12.954 2 4 10.954 4 22c0 12 20 37 20 37s20-25 20-37C44 10.954 35.046 2 24 2z" fill="url(#border)"/>
  <!-- Pin shape inner (transparent/dark fill for contrast on map) -->
  <path d="M24 5C14.611 5 7 12.611 7 22c0 10.2 17 31.5 17 31.5S41 32.2 41 22C41 12.611 33.389 5 24 5z" fill="#ffffffee"/>
  <!-- Blue circle behind paddle -->
  <circle cx="24" cy="22" r="10" fill="url(#ball)"/>
  <!-- Paddle blade -->
  <path d="M24 10c-1.2 0-2.2 1-2.2 2.2v5.6c0 1.8 1 3.2 2.2 3.2s2.2-1.4 2.2-3.2v-5.6C26.2 11 25.2 10 24 10z" fill="#1e3a8a"/>
  <!-- Paddle shaft -->
  <rect x="23.2" y="20" width="1.6" height="12" rx="0.8" fill="#1e3a8a"/>
  <!-- Paddle handle -->
  <rect x="21.5" y="31" width="5" height="2" rx="1" fill="#1e3a8a"/>
  <!-- Blue wave -->
  <path d="M11 28c3-2 5 1 8-1s5-3 8-1 5 2 8 0" stroke="#38bdf8" stroke-width="2" fill="none" stroke-linecap="round"/>
  <!-- Red wave -->
  <path d="M12 31c3-2 5 1 8-1s5-2 7 0 4 1 7-1" stroke="#ef4444" stroke-width="1.8" fill="none" stroke-linecap="round"/>
</svg>
